<mxfile host="app.diagrams.net" modified="2023-06-25T01:23:50.044Z" agent="5.0 (Windows NT 10.0; Win64; x64) AppleWebKit/537.36 (KHTML, like Gecko) Chrome/114.0.0.0 Safari/537.36 Edg/114.0.1823.43" etag="OPtArDsAtwQxmuVLZ6Jr" version="20.4.0" type="github">
  <diagram id="MTTecpIO69EQGpuZxPY9" name="第 1 页">
    <mxGraphModel dx="727" dy="474" grid="1" gridSize="10" guides="1" tooltips="1" connect="1" arrows="1" fold="1" page="1" pageScale="1" pageWidth="827" pageHeight="1169" math="0" shadow="0">
      <root>
        <mxCell id="0" />
        <mxCell id="1" parent="0" />
      </root>
    </mxGraphModel>
  </diagram>
</mxfile>
